<svg xmlns="http://www.w3.org/2000/svg" width="800" height="450" viewBox="0 0 800 450">
  <defs><filter id="s" x="-5%" y="-5%" width="110%" height="110%"><feDropShadow dx="0" dy="1" stdDeviation="3" flood-color="#000" flood-opacity="0.06"/></filter></defs>
  <rect width="800" height="450" fill="#f8fafc"/>
  <rect x="200" y="20" width="580" height="410" rx="8" fill="#fff" filter="url(#s)"/>
  <rect x="200" y="20" width="580" height="48" rx="8" fill="#f8fafc"/>
  <rect x="200" y="60" width="580" height="8" fill="#f8fafc"/>
  <text x="220" y="52" font-family="system-ui" font-size="14" font-weight="700" fill="#0f172a">Components Showcase</text>
  <rect x="220" y="82" width="260" height="150" rx="8" fill="#fff" stroke="#e2e8f0"/>
  <text x="238" y="108" font-family="system-ui" font-size="13" font-weight="600" fill="#0f172a">Buttons</text>
  <rect x="238" y="120" width="60" height="28" rx="6" fill="#6366f1"/><text x="248" y="139" font-family="system-ui" font-size="10" fill="#fff">Primary</text>
  <rect x="306" y="120" width="60" height="28" rx="6" fill="#64748b"/><text x="316" y="139" font-family="system-ui" font-size="10" fill="#fff">Secondary</text>
  <rect x="238" y="156" width="60" height="28" rx="6" fill="#22c55e"/><text x="248" y="175" font-family="system-ui" font-size="10" fill="#fff">Success</text>
  <rect x="306" y="156" width="60" height="28" rx="6" fill="#ef4444"/><text x="316" y="175" font-family="system-ui" font-size="10" fill="#fff">Danger</text>
  <rect x="238" y="192" width="60" height="28" rx="6" fill="#f59e0b"/><text x="248" y="211" font-family="system-ui" font-size="10" fill="#fff">Warning</text>
  <rect x="306" y="192" width="60" height="28" rx="6" fill="none" stroke="#cbd5e1"/><text x="316" y="211" font-family="system-ui" font-size="10" fill="#64748b">Outline</text>
  <rect x="500" y="82" width="260" height="150" rx="8" fill="#fff" stroke="#e2e8f0"/>
  <text x="518" y="108" font-family="system-ui" font-size="13" font-weight="600" fill="#0f172a">Cards</text>
  <rect x="518" y="120" width="110" height="50" rx="6" fill="#f8fafc" stroke="#e2e8f0"/>
  <text x="530" y="140" font-family="system-ui" font-size="10" fill="#64748b">Default Card</text>
  <rect x="642" y="120" width="106" height="50" rx="6" fill="#eff6ff" stroke="#bfdbfe"/>
  <text x="654" y="140" font-family="system-ui" font-size="10" fill="#1e40af">Info Card</text>
  <rect x="518" y="180" width="230" height="40" rx="6" fill="#f0fdf4" stroke="#bbf7d0"/>
  <text x="530" y="196" font-family="system-ui" font-size="10" fill="#166534">Success Card with border</text>
  <rect x="220" y="250" width="540" height="165" rx="8" fill="#fff" stroke="#e2e8f0"/>
  <text x="238" y="276" font-family="system-ui" font-size="13" font-weight="600" fill="#0f172a">Alerts, Modals & Tabs</text>
  <rect x="238" y="290" width="504" height="28" rx="6" fill="#f0fdf4" stroke="#bbf7d0"/>
  <text x="250" y="309" font-family="system-ui" font-size="10" fill="#166534">Success: Your changes have been saved.</text>
  <rect x="238" y="324" width="504" height="28" rx="6" fill="#fef2f2" stroke="#fecaca"/>
  <text x="250" y="343" font-family="system-ui" font-size="10" fill="#dc2626">Danger: There was an error processing your request.</text>
  <rect x="238" y="358" width="504" height="28" rx="6" fill="#fffbeb" stroke="#fde68a"/>
  <text x="250" y="377" font-family="system-ui" font-size="10" fill="#d97706">Warning: Your session will expire in 5 minutes.</text>
  <text x="400" y="435" text-anchor="middle" font-family="system-ui" font-size="11" fill="#cbd5e1">Components Showcase</text>
</svg>
