<svg xmlns="http://www.w3.org/2000/svg" width="800" height="450" viewBox="0 0 800 450">
  <defs><filter id="s" x="-5%" y="-5%" width="110%" height="110%"><feDropShadow dx="0" dy="1" stdDeviation="3" flood-color="#000" flood-opacity="0.06"/></filter></defs>
  <rect width="800" height="450" fill="#0f172a"/>
  <rect x="200" y="20" width="580" height="410" rx="8" fill="#1e293b" filter="url(#s)" stroke="#334155"/>
  <rect x="200" y="20" width="580" height="48" rx="8" fill="#1e293b"/>
  <rect x="200" y="60" width="580" height="8" fill="#1e293b"/>
  <text x="220" y="52" font-family="system-ui" font-size="14" font-weight="700" fill="#f1f5f9">Dark Mode — Analytics</text>
  <rect x="220" y="82" width="130" height="72" rx="6" fill="#052e16" stroke="#166534"/>
  <text x="234" y="104" font-family="system-ui" font-size="10" fill="#86efac">Total Revenue</text>
  <text x="234" y="136" font-family="system-ui" font-size="22" font-weight="700" fill="#4ade80">$48,250</text>
  <rect x="364" y="82" width="130" height="72" rx="6" fill="#172554" stroke="#1d4ed8"/>
  <text x="378" y="104" font-family="system-ui" font-size="10" fill="#93c5fd">Active Users</text>
  <text x="378" y="136" font-family="system-ui" font-size="22" font-weight="700" fill="#60a5fa">2,847</text>
  <rect x="508" y="82" width="130" height="72" rx="6" fill="#431407" stroke="#c2410c"/>
  <text x="522" y="104" font-family="system-ui" font-size="10" fill="#fdba74">New Orders</text>
  <text x="522" y="136" font-family="system-ui" font-size="22" font-weight="700" fill="#fb923c">156</text>
  <rect x="652" y="82" width="110" height="72" rx="6" fill="#1f2937" stroke="#6b7280"/>
  <text x="666" y="104" font-family="system-ui" font-size="10" fill="#9ca3af">Bounce</text>
  <text x="666" y="136" font-family="system-ui" font-size="22" font-weight="700" fill="#9ca3af">24.5%</text>
  <rect x="220" y="170" width="370" height="240" rx="8" fill="#1e293b" stroke="#334155"/>
  <text x="238" y="196" font-family="system-ui" font-size="13" font-weight="600" fill="#f1f5f9">Revenue Overview</text>
  <rect x="606" y="170" width="156" height="240" rx="8" fill="#1e293b" stroke="#334155"/>
  <text x="622" y="196" font-family="system-ui" font-size="13" font-weight="600" fill="#f1f5f9">Activity</text>
  <text x="623" y="224" font-family="system-ui" font-size="10" fill="#94a3b8">New user registered</text>
  <text x="623" y="249" font-family="system-ui" font-size="10" fill="#94a3b8">Order completed</text>
  <text x="623" y="274" font-family="system-ui" font-size="10" fill="#94a3b8">Payment received</text>
  <text x="400" y="435" text-anchor="middle" font-family="system-ui" font-size="11" fill="#475569">Dark Mode Preview</text>
</svg>
