<svg xmlns="http://www.w3.org/2000/svg" width="800" height="450" viewBox="0 0 800 450">
  <defs><filter id="s" x="-5%" y="-5%" width="110%" height="110%"><feDropShadow dx="0" dy="1" stdDeviation="3" flood-color="#000" flood-opacity="0.06"/></filter></defs>
  <rect width="800" height="450" fill="#f8fafc"/>
  <rect x="200" y="20" width="580" height="410" rx="8" fill="#fff" filter="url(#s)"/>
  <rect x="200" y="20" width="580" height="48" rx="8" fill="#f8fafc"/>
  <rect x="200" y="60" width="580" height="8" fill="#f8fafc"/>
  <text x="220" y="52" font-family="system-ui" font-size="14" font-weight="700" fill="#0f172a">Forms Showcase</text>
  <rect x="220" y="82" width="260" height="330" rx="8" fill="#fff" stroke="#e2e8f0"/>
  <text x="238" y="108" font-family="system-ui" font-size="13" font-weight="600" fill="#0f172a">Input Fields</text>
  <text x="238" y="134" font-family="system-ui" font-size="10" fill="#64748b">Text Input</text>
  <rect x="238" y="140" width="226" height="32" rx="6" fill="none" stroke="#cbd5e1"/>
  <text x="250" y="160" font-family="system-ui" font-size="10" fill="#94a3b8">Enter text...</text>
  <text x="238" y="192" font-family="system-ui" font-size="10" fill="#64748b">Email</text>
  <rect x="238" y="198" width="226" height="32" rx="6" fill="none" stroke="#cbd5e1"/>
  <text x="250" y="218" font-family="system-ui" font-size="10" fill="#94a3b8">email@example.com</text>
  <text x="238" y="250" font-family="system-ui" font-size="10" fill="#64748b">Textarea</text>
  <rect x="238" y="256" width="226" height="60" rx="6" fill="none" stroke="#cbd5e1"/>
  <text x="250" y="276" font-family="system-ui" font-size="10" fill="#94a3b8">Enter description...</text>
  <text x="238" y="340" font-family="system-ui" font-size="10" fill="#64748b">Select</text>
  <rect x="238" y="346" width="226" height="32" rx="6" fill="none" stroke="#cbd5e1"/>
  <text x="250" y="366" font-family="system-ui" font-size="10" fill="#94a3b8">Option 1</text>
  <rect x="500" y="82" width="260" height="330" rx="8" fill="#fff" stroke="#e2e8f0"/>
  <text x="518" y="108" font-family="system-ui" font-size="13" font-weight="600" fill="#0f172a">Checkboxes & Toggles</text>
  <rect x="518" y="122" width="16" height="16" rx="4" fill="#6366f1"/><text x="544" y="134" font-family="system-ui" font-size="10" fill="#64748b">Option A</text>
  <rect x="518" y="148" width="16" height="16" rx="4" fill="none" stroke="#cbd5e1"/><text x="544" y="160" font-family="system-ui" font-size="10" fill="#64748b">Option B</text>
  <rect x="518" y="174" width="16" height="16" rx="4" fill="none" stroke="#cbd5e1"/><text x="544" y="186" font-family="system-ui" font-size="10" fill="#64748b">Option C</text>
  <text x="518" y="218" font-family="system-ui" font-size="10" fill="#64748b">Toggle Switches</text>
  <rect x="518" y="232" width="44" height="24" rx="12" fill="#6366f1"/><circle cx="552" cy="244" r="10" fill="#fff"/><text x="576" y="240" font-family="system-ui" font-size="10" fill="#64748b">Notifications</text>
  <rect x="518" y="264" width="44" height="24" rx="12" fill="#cbd5e1"/><circle cx="528" cy="276" r="10" fill="#fff"/><text x="576" y="272" font-family="system-ui" font-size="10" fill="#64748b">Dark Mode</text>
  <rect x="518" y="296" width="44" height="24" rx="12" fill="#6366f1"/><circle cx="552" cy="308" r="10" fill="#fff"/><text x="576" y="304" font-family="system-ui" font-size="10" fill="#64748b">Auto Save</text>
  <text x="400" y="435" text-anchor="middle" font-family="system-ui" font-size="11" fill="#cbd5e1">Forms Showcase</text>
</svg>
