<svg xmlns="http://www.w3.org/2000/svg" width="800" height="450" viewBox="0 0 800 450">
  <defs><filter id="s" x="-5%" y="-5%" width="110%" height="110%"><feDropShadow dx="0" dy="1" stdDeviation="3" flood-color="#000" flood-opacity="0.06"/></filter></defs>
  <rect width="800" height="450" fill="#f8fafc"/>
  <rect x="200" y="20" width="580" height="410" rx="8" fill="#fff" filter="url(#s)"/>
  <rect x="200" y="20" width="580" height="48" rx="8" fill="#f8fafc"/>
  <rect x="200" y="60" width="580" height="8" fill="#f8fafc"/>
  <text x="220" y="52" font-family="system-ui" font-size="14" font-weight="700" fill="#0f172a">Users Table</text>
  <rect x="220" y="82" width="226" height="32" rx="6" fill="#f8fafc" stroke="#cbd5e1"/>
  <text x="234" y="102" font-family="system-ui" font-size="10" fill="#94a3b8">Search users...</text>
  <rect x="460" y="82" width="100" height="32" rx="6" fill="#f8fafc" stroke="#cbd5e1"/>
  <text x="474" y="102" font-family="system-ui" font-size="10" fill="#94a3b8">All Roles</text>
  <rect x="220" y="126" width="540" height="24" rx="6" fill="#f8fafc"/>
  <text x="234" y="142" font-family="system-ui" font-size="10" font-weight="600" fill="#64748b">NAME          EMAIL          ROLE       STATUS</text>
  <line x1="220" y1="156" x2="760" y2="156" stroke="#e2e8f0"/>
  <text x="234" y="174" font-family="system-ui" font-size="10" fill="#64748b">John Doe       john@test.com     Admin      Active</text>
  <text x="234" y="194" font-family="system-ui" font-size="10" fill="#64748b">Jane Smith     jane@test.com     Editor     Active</text>
  <text x="234" y="214" font-family="system-ui" font-size="10" fill="#64748b">Bob Johnson    bob@test.com      User       Active</text>
  <text x="234" y="234" font-family="system-ui" font-size="10" fill="#64748b">Alice Brown    alice@test.com    Editor     Inactive</text>
  <text x="234" y="254" font-family="system-ui" font-size="10" fill="#64748b">Charlie Wilson charlie@test.com  User       Active</text>
  <text x="234" y="274" font-family="system-ui" font-size="10" fill="#64748b">Diana Ross     diana@test.com    Admin      Active</text>
  <text x="234" y="294" font-family="system-ui" font-size="10" fill="#64748b">Edward Stone   edward@test.com   User       Active</text>
  <text x="234" y="314" font-family="system-ui" font-size="10" fill="#64748b">Fiona Green    fiona@test.com    Editor     Active</text>
  <text x="234" y="334" font-family="system-ui" font-size="10" fill="#64748b">George Black   george@test.com   User       Inactive</text>
  <text x="234" y="354" font-family="system-ui" font-size="10" fill="#64748b">Hannah White   hannah@test.com   User       Active</text>
  <text x="400" y="435" text-anchor="middle" font-family="system-ui" font-size="11" fill="#cbd5e1">Users Table</text>
</svg>
